# xmcd
#
# Track frame offsets: 
#        150
#        16158
#        35374
#        54808
#        68641
#        90387
#        103832
#        118687
#        135132
#        156610
#        176416
#        191542
#        204269
#
# Disc length: 2945 seconds
#
# Revision: 3
# Processed by: cddbd v1.5.2PL0 Copyright (c) Steve Scherf et al.
# Submitted via: ExactAudioCopy v0.99pb4
#
DISCID=9c0b7f0d
DTITLE=Various Artist - Imus Ranch Record, The
DYEAR=2008
DGENRE=Country
TTITLE0=Patty Loveless - Silver Springs
TTITLE1=Delbert McClinton - Lay Down Sally
TTITLE2=Lucinda Williams - Mama Don't Let Your Babies Grow Up To Be Co
TTITLE2=wboys
TTITLE3=Levon Helm - You Better Move On
TTITLE4=Raul Malo - Life Has Its Little Ups And Downs
TTITLE5=Little Richard - I Ain't Never
TTITLE6=Randy Travis - I Don't See Me In Your Eyes Anymore
TTITLE7=Big and Rich - You've Got To Fight For Your Right To Party
TTITLE8=Willie Nelson - What A Difference A Day Makes
TTITLE9=Dwight Yoakam - Give Back The Key To My Heart
TTITLE10=Bekka Bramlett - What Happened
TTITLE11=John Hiatt - Welfare Music
TTITLE12=Vince Gill - A Satisfied Mind
EXTD=YEAR: 2008
EXTT0=
EXTT1=
EXTT2=
EXTT3=
EXTT4=
EXTT5=
EXTT6=
EXTT7=
EXTT8=
EXTT9=
EXTT10=
EXTT11=
EXTT12=
PLAYORDER=
